<svg width="40" height="40" fill="none" xmlns="http://www.w3.org/2000/svg"><g clip-path="url(#a)" fill="#fff"><path d="M23.343 24.507A6.008 6.008 0 0 1 20 25.521a6.008 6.008 0 0 1-3.343-1.014L.267 13.58c-.092-.061-.18-.124-.267-.19v17.907a3.681 3.681 0 0 0 3.682 3.682h32.636A3.681 3.681 0 0 0 40 31.297V13.39a5.797 5.797 0 0 1-.267.189l-16.39 10.927Z"/><path d="m1.566 11.63 16.391 10.927a3.677 3.677 0 0 0 4.086 0l16.39-10.927A3.51 3.51 0 0 0 40 8.701a3.685 3.685 0 0 0-3.681-3.681H3.681A3.686 3.686 0 0 0 0 8.704c0 1.178.586 2.272 1.566 2.925Z"/></g><defs><clipPath id="a"><path fill="#fff" d="M0 0h40v40H0z"/></clipPath></defs></svg>
