<svg width="40" height="40" fill="none" xmlns="http://www.w3.org/2000/svg"><path fill-rule="evenodd" clip-rule="evenodd" d="M32.4 7.61A17.314 17.314 0 0 0 20.074 2.5c-9.605 0-17.423 7.817-17.427 17.425a17.396 17.396 0 0 0 2.326 8.713L2.5 37.668l9.238-2.423a17.409 17.409 0 0 0 8.328 2.121h.007c9.605 0 17.423-7.818 17.427-17.427a17.32 17.32 0 0 0-5.1-12.328ZM20.074 34.424h-.006a14.467 14.467 0 0 1-7.372-2.019l-.529-.314-5.482 1.438 1.463-5.345-.344-.548a14.448 14.448 0 0 1-2.214-7.708c.003-7.986 6.5-14.484 14.49-14.484a14.386 14.386 0 0 1 10.24 4.248 14.398 14.398 0 0 1 4.239 10.247c-.004 7.987-6.501 14.485-14.485 14.485Zm7.945-10.848c-.435-.218-2.576-1.271-2.975-1.417-.399-.145-.69-.218-.98.218-.29.436-1.124 1.417-1.379 1.707-.254.29-.507.327-.943.11-.436-.219-1.838-.678-3.502-2.162-1.294-1.155-2.168-2.58-2.422-3.016-.254-.436-.002-.65.19-.889.472-.585.944-1.199 1.09-1.49.145-.29.072-.544-.037-.762-.109-.218-.98-2.361-1.342-3.234-.354-.848-.713-.734-.98-.747a17.363 17.363 0 0 0-.835-.015c-.29 0-.762.109-1.161.545-.399.436-1.524 1.49-1.524 3.632 0 2.144 1.56 4.214 1.778 4.505.218.29 3.07 4.689 7.439 6.575 1.039.449 1.85.716 2.482.917 1.043.331 1.992.285 2.743.172.836-.125 2.576-1.053 2.939-2.07s.363-1.889.254-2.07c-.109-.182-.4-.291-.835-.51Z" fill="#fff"/></svg>
