<svg width="64" height="64" fill="none" xmlns="http://www.w3.org/2000/svg"><path d="M55.131 46.169H32.87a.869.869 0 0 1-.869-.87v-7.285a3.476 3.476 0 0 1 3.476-3.475h17.048A3.476 3.476 0 0 1 56 38.014V45.3c0 .48-.389.869-.869.869Z" fill="#B5ADB6"/><path d="M52.524 34.539h-1.998a3.476 3.476 0 0 1 3.476 3.475V45.3c0 .48-.39.869-.87.869h2c.48 0 .868-.39.868-.87v-7.285a3.476 3.476 0 0 0-3.476-3.475Z" fill="#A79BA7"/><path d="M31.131 46.169H8.87a.869.869 0 0 1-.869-.87v-7.285a3.476 3.476 0 0 1 3.476-3.475h17.048A3.476 3.476 0 0 1 32 38.014V45.3c0 .48-.389.869-.869.869Z" fill="#B5ADB6"/><path d="M28.524 34.539h-1.998a3.476 3.476 0 0 1 3.476 3.475V45.3c0 .48-.39.869-.87.869h2c.48 0 .868-.39.868-.87v-7.285a3.476 3.476 0 0 0-3.476-3.475Z" fill="#A79BA7"/><path d="M12.882 24.19v-6.35a3.84 3.84 0 0 1 3.84-3.84h5.397a3.583 3.583 0 0 1 3.583 3.583h.193c.676.006 1.03.555 1.03 1.232v5.375H12.881Z" fill="#BF3E07"/><path d="M17.069 33.2 20 36.83l-3.327 2.453-.888-4.745 1.284-1.337ZM22.931 33.2 20 36.83l3.327 2.453.888-4.745-1.284-1.337Z" fill="#A79BA7"/><path d="M22.931 29.013v4.188L20 36.829l-2.931-3.628v-4.188h5.862Z" fill="#FFBD86"/><path d="M20 33.528c-3.232 0-5.851-2.654-5.851-5.927v-4.103c0-3.274 2.62-5.927 5.85-5.927 3.232 0 5.852 2.653 5.852 5.927V27.6c0 3.273-2.62 5.927-5.851 5.927Z" fill="#FED2A4"/><path d="M14.15 23.588h-.419a1.955 1.955 0 1 0 0 3.91h.418v-3.91ZM20 17.57c-.295 0-.585.023-.869.066 2.82.425 4.982 2.887 4.982 5.862V27.6c0 2.974-2.163 5.436-4.982 5.861.284.043.574.066.869.066 3.231 0 5.85-2.654 5.85-5.927v-4.103c0-3.274-2.619-5.927-5.85-5.927Z" fill="#FFBD86"/><path d="M13.568 19.65s11.126 4.09 11.126 0c0 0-4.69-6.255-11.126 0Z" fill="#BF3E07"/><path d="M25.896 17.583A3.583 3.583 0 0 0 22.312 14h-1.77a3.583 3.583 0 0 1 3.584 3.583 1.232 1.232 0 0 1 1.222 1.232v5.375h1.77v-5.375c0-.677-.546-1.226-1.222-1.232Z" fill="#AE3704"/><path d="M36.882 24.19v-6.35a3.84 3.84 0 0 1 3.84-3.84h5.397a3.583 3.583 0 0 1 3.583 3.583h.194c.675.006 1.029.555 1.029 1.232v5.375H36.882Z" fill="#FED402"/><path d="M49.895 17.583A3.583 3.583 0 0 0 46.313 14h-1.77a3.583 3.583 0 0 1 3.584 3.583 1.232 1.232 0 0 1 1.222 1.232v5.375h1.77v-5.375c0-.677-.547-1.226-1.223-1.232Z" fill="#FAC600"/><path d="M41.069 33.2 44 36.83l-3.327 2.453-.888-4.745 1.284-1.337ZM46.931 33.2 44 36.83l3.327 2.453.888-4.745-1.284-1.337Z" fill="#A79BA7"/><path d="M46.931 29.013v4.188L44 36.829l-2.931-3.628v-4.188h5.862Z" fill="#FFBD86"/><path d="M44 33.528c-3.231 0-5.851-2.654-5.851-5.927v-4.103c0-3.274 2.62-5.927 5.85-5.927 3.232 0 5.852 2.653 5.852 5.927V27.6c0 3.273-2.62 5.927-5.851 5.927Z" fill="#FED2A4"/><path d="M50.269 23.588h-.418v3.91h.418a1.955 1.955 0 1 0 0-3.91ZM44 17.57c-.295 0-.585.023-.869.066 2.82.425 4.982 2.887 4.982 5.862V27.6c0 2.974-2.163 5.436-4.982 5.861.284.043.574.066.869.066 3.231 0 5.85-2.654 5.85-5.927v-4.103c0-3.274-2.619-5.927-5.85-5.927Z" fill="#FFBD86"/><path d="M37.664 19.65s11.127 4.09 11.127 0c0 0-4.692-6.255-11.127 0Z" fill="#FED402"/><path d="M44.372 50.238H19.628a.966.966 0 0 1-.966-.966v-8.097a3.863 3.863 0 0 1 3.863-3.864h18.95a3.863 3.863 0 0 1 3.863 3.864v8.097a.966.966 0 0 1-.966.966Z" fill="#EFEDEF"/><path d="M13.358 46.169V42.56a.724.724 0 1 0-1.45 0v3.608h1.45ZM52.091 46.169V42.56a.724.724 0 1 0-1.449 0v3.608h1.449Z" fill="#A79BA7"/><path d="M38.15 23.588h-.419a1.955 1.955 0 1 0 0 3.91h.418v-3.91ZM26.269 23.588h-.418v3.91h.418a1.955 1.955 0 1 0 0-3.91Z" fill="#FFBD86"/><path d="M41.475 37.311h-2.222a3.863 3.863 0 0 1 3.864 3.864v8.097a.966.966 0 0 1-.966.966h2.221a.966.966 0 0 0 .966-.966v-8.097a3.863 3.863 0 0 0-3.863-3.864Z" fill="#D7D0D6"/><path d="M28.742 35.824 32 39.857l-3.698 2.727-.987-5.273 1.427-1.487ZM35.258 35.824 32 39.857l3.698 2.727.987-5.273-1.427-1.487Z" fill="#CBC4CC"/><path d="m32 39.857-2.626 1.937L32 44.184l2.626-2.39L32 39.857Z" fill="#FD4755"/><path d="M35.258 31.17v4.654L32 39.857l-3.258-4.033V31.17h6.516Z" fill="#CC8141"/><path d="M23.455 26.895V19.27a4.61 4.61 0 0 1 4.609-4.61h6.52a4.302 4.302 0 0 1 4.3 4.302h.194c.812.007 1.274.666 1.274 1.48v6.453H23.455Z" fill="#3F3F3F"/><path d="M39.078 18.962a4.302 4.302 0 0 0-4.302-4.301h-2.124a4.302 4.302 0 0 1 4.301 4.301 1.48 1.48 0 0 1 1.468 1.48v6.453h2.124v-6.453a1.48 1.48 0 0 0-1.467-1.48Z" fill="#2F2B19"/><path d="M32 36.188c-3.592 0-6.503-2.95-6.503-6.588v-4.56c0-3.639 2.911-6.588 6.503-6.588s6.503 2.949 6.503 6.587V29.6c0 3.638-2.911 6.588-6.503 6.588Z" fill="#E99F52"/><path d="M25.497 25.14h-.464a2.173 2.173 0 1 0 0 4.346h.464V25.14ZM38.968 25.14h-.465v4.346h.465a2.173 2.173 0 1 0 0-4.346ZM32 18.452c-.328 0-.65.025-.966.072 3.134.473 5.538 3.21 5.538 6.515V29.6c0 3.306-2.404 6.042-5.538 6.515.315.047.638.073.966.073 3.592 0 6.503-2.95 6.503-6.588v-4.56c0-3.639-2.911-6.588-6.503-6.588Z" fill="#CC8141"/><path d="M26.194 20.589s11.363 4.176 11.363 0c0 0-4.791-6.388-11.363 0Z" fill="#3F3F3F"/><path d="M29.65 50.238 32 44.183l2.35 6.055h-4.7Z" fill="#FD4755"/><path d="M40.913 50.238v-4.273a.724.724 0 0 0-1.45 0v4.273h1.45ZM24.555 50.238v-4.273a.724.724 0 1 0-1.449 0v4.273h1.449Z" fill="#E5E1E5"/></svg>
