<?xml version="1.0" standalone="no"?>
<!DOCTYPE svg PUBLIC "-//W3C//DTD SVG 20010904//EN"
 "http://www.w3.org/TR/2001/REC-SVG-20010904/DTD/svg10.dtd">
<svg version="1.0" xmlns="http://www.w3.org/2000/svg"
 width="512.000000pt" height="512.000000pt" viewBox="0 0 512.000000 512.000000"
 preserveAspectRatio="xMidYMid meet">
<metadata>
Created by potrace 1.14, written by Peter Selinger 2001-2017
</metadata>
<g transform="translate(0.000000,512.000000) scale(0.100000,-0.100000)"
fill="#000000" stroke="none">
<path d="M3717 5114 c-1 -1 -36 -4 -78 -8 -83 -6 -289 -40 -354 -57 -22 -6
-47 -12 -55 -14 -61 -12 -227 -67 -337 -111 -236 -94 -454 -219 -648 -371
-278 -218 -521 -516 -675 -828 -88 -179 -160 -376 -177 -479 -3 -16 -8 -39
-12 -50 -11 -28 -2 -126 24 -255 11 -57 61 -192 98 -266 65 -130 126 -214 232
-321 164 -164 330 -260 545 -312 108 -27 162 -33 280 -32 89 0 116 3 180 15
14 3 39 8 55 11 30 5 127 34 179 54 l27 10 -44 53 c-109 130 -209 329 -231
462 -3 17 -10 53 -15 80 -10 48 -8 289 2 330 3 11 10 43 16 70 59 264 252 528
501 687 105 66 283 139 397 163 16 3 35 8 43 9 22 5 127 17 185 20 l50 3 3
571 2 572 -96 -3 c-52 -1 -96 -3 -97 -3z"/>
<path d="M53 2973 c10 -210 41 -397 96 -590 75 -261 203 -535 349 -747 434
-631 1082 -1020 1827 -1096 110 -12 465 -9 520 3 11 3 40 8 65 11 25 3 56 8
70 11 14 3 41 8 60 11 67 11 195 46 295 78 602 198 1125 645 1429 1219 79 150
174 380 201 487 2 8 10 40 18 70 23 86 54 239 62 305 4 32 9 68 11 80 2 11 7
82 11 158 l6 137 -738 -2 -739 -3 -2 -45 c-6 -97 -16 -169 -32 -235 -41 -159
-85 -264 -159 -382 -186 -297 -467 -488 -805 -547 -81 -14 -302 -15 -358 -2
-14 4 -38 9 -55 12 -146 26 -355 124 -481 225 -64 51 -185 182 -234 251 -138
195 -224 454 -229 691 l-1 37 -597 0 -596 0 6 -137z"/>
<path d="M3840 739 c-359 -223 -851 -369 -1275 -378 l-70 -2 100 -51 c194 -99
466 -196 655 -234 149 -30 225 -44 275 -49 33 -4 71 -8 85 -10 14 -2 87 -6
163 -10 l137 -7 0 391 c0 215 -1 391 -2 391 -2 -1 -32 -19 -68 -41z"/>
</g>
</svg>
