<svg width="64" height="64" fill="none" xmlns="http://www.w3.org/2000/svg"><path d="M52.798 48.88a.724.724 0 0 1-.724-.724v-5.533a.724.724 0 0 1 1.448 0v5.534c0 .4-.324.724-.724.724ZM11.202 48.88a.724.724 0 0 1-.724-.724v-5.533a.724.724 0 0 1 1.449 0v5.534c0 .4-.325.724-.725.724Z" fill="#AE6C6C"/><path d="m53.235 35.086 1.644 5.582a.483.483 0 0 1-.124.572l-1.643 2.233a.483.483 0 0 1-.628 0l-2.61-2.233a.483.483 0 0 1-.123-.572l2.61-5.582a.483.483 0 0 1 .874 0Z" fill="#ADE194"/><path d="m55.844 40.668-2.609-5.582a.483.483 0 0 0-.875 0l-.528 1.13 2.08 4.452a.483.483 0 0 1-.123.572l-1.957 1.675.652.558c.18.154.447.154.628 0l2.609-2.233a.483.483 0 0 0 .123-.572Z" fill="#80D261"/><path d="m11.64 35.086 1.643 5.582a.483.483 0 0 1-.124.572l-1.643 2.233a.483.483 0 0 1-.628 0l-2.61-2.233a.483.483 0 0 1-.123-.572l2.61-5.582a.483.483 0 0 1 .874 0Z" fill="#ADE194"/><path d="m14.249 40.668-2.61-5.582a.483.483 0 0 0-.874 0l-.529 1.13 2.081 4.452a.483.483 0 0 1-.123.572l-1.958 1.675.652.558c.18.154.447.154.628 0l2.61-2.233a.483.483 0 0 0 .123-.572Z" fill="#80D261"/><path d="M8 49.122v1.992c0 .534.432.966.966.966h45.102a.966.966 0 0 0 .966-.966v-1.992a.966.966 0 0 0-.966-.965h-4.472L32 47.19l-17.596.965H8.966a.966.966 0 0 0-.966.966Z" fill="#B5ADB6"/><path d="M38.633 48.157h9.997v-27.15a.966.966 0 0 0-.966-.966h-9.03v28.116Z" fill="#EFEDEF"/><path d="M38.633 44.504h6.91a.966.966 0 0 0 .966-.966v-6.306a.966.966 0 0 0-.966-.966h-6.91v8.238ZM38.633 31.931h6.91a.966.966 0 0 0 .966-.966V24.66a.966.966 0 0 0-.966-.966h-6.91v8.238Z" fill="#8AC9FE"/><path d="M46.509 28.537h-5.066a.724.724 0 0 1 0-1.449h5.066a.724.724 0 0 1 0 1.449ZM46.509 41.11h-5.066a.724.724 0 0 1 0-1.45h5.066a.724.724 0 1 1 0 1.45Z" fill="#EBEBEB"/><path d="M48.63 20.041h-2.897c.533 0 .966.433.966.966v27.15h2.897v-27.15a.966.966 0 0 0-.966-.966Z" fill="#D7D0D6"/><path d="M55.034 48.157h-2.897c.533 0 .965.432.965.965v1.992a.966.966 0 0 1-.965.966h2.897a.966.966 0 0 0 .966-.966v-1.992a.966.966 0 0 0-.966-.965Z" fill="#9B8E99"/><path d="M25.366 48.157H14.404v-27.15c0-.534.432-.966.966-.966h9.996v28.116Z" fill="#EFEDEF"/><path d="M19.66 20.041h2.897v28.116h-2.898V20.04Z" fill="#D7D0D6"/><path d="M25.367 44.504h-6.91a.966.966 0 0 1-.966-.966v-6.306c0-.533.432-.966.966-.966h6.91v8.238Z" fill="#8AC9FE"/><path d="M19.66 36.266h5.707v8.238h-5.708v-8.238Z" fill="#60B7FF"/><path d="M25.367 31.931h-6.91a.966.966 0 0 1-.966-.966V24.66c0-.533.432-.966.966-.966h6.91v8.238Z" fill="#8AC9FE"/><path d="M19.66 23.693h5.707v8.238h-5.708v-8.238Z" fill="#60B7FF"/><path d="M40.478 48.157H22.557V11.965c0-.534.432-.966.965-.966h15.99c.533 0 .966.432.966.966v36.19Z" fill="#EFEDEF"/><path d="M40.478 11H37.58c.534 0 .966.432.966.966v36.19h2.898v-36.19a.966.966 0 0 0-.966-.966Z" fill="#D7D0D6"/><path d="M26.332 29.33h2.93c.534 0 .967.432.967.965v2.93a.966.966 0 0 1-.966.967h-2.93a.966.966 0 0 1-.966-.966v-2.93c0-.534.432-.966.965-.966ZM34.737 29.33h2.93c.534 0 .966.432.966.965v2.93a.966.966 0 0 1-.965.967h-2.93a.966.966 0 0 1-.966-.966v-2.93c0-.534.432-.966.965-.966ZM26.332 21.88h2.93c.534 0 .967.431.967.965v2.93a.966.966 0 0 1-.966.966h-2.93a.966.966 0 0 1-.966-.966v-2.93c0-.534.432-.966.965-.966ZM34.737 21.88h2.93c.534 0 .966.431.966.965v2.93a.966.966 0 0 1-.965.966h-2.93a.966.966 0 0 1-.966-.966v-2.93c0-.534.432-.966.965-.966ZM26.332 14.429h2.93c.534 0 .967.432.967.965v2.93a.966.966 0 0 1-.966.966h-2.93a.966.966 0 0 1-.966-.965v-2.93c0-.534.432-.966.965-.966ZM34.737 14.429h2.93c.534 0 .966.432.966.965v2.93a.966.966 0 0 1-.965.966h-2.93a.966.966 0 0 1-.966-.965v-2.93c0-.534.432-.966.965-.966Z" fill="#8AC9FE"/><path d="M22.556 28.537h-5.065a.724.724 0 0 1 0-1.449h5.066a.724.724 0 0 1 0 1.449ZM22.556 41.11h-5.065a.724.724 0 0 1 0-1.45h5.066a.724.724 0 1 1 0 1.45Z" fill="#EBEBEB"/><path d="M35.74 40.385h-3.016L32 39.661l-.724.724h-3.017v7.772h7.481v-7.772Z" fill="#8AC9FE"/><path d="M35.74 40.385h-3.016L32 39.661l-.724.724h-3.017v1.739h7.481v-1.739Z" fill="#60B7FF"/><path d="M31.276 48.157h1.448v-7.772L32 39.661l-.724.724v7.772Z" fill="#EFEDEF"/><path d="M31.276 42.124h1.448v-1.739L32 39.661l-.724.724v1.739Z" fill="#E5E1E5"/><path d="M35.685 37.62h-8.336a.966.966 0 0 0-.965.966v.834c0 .533.432.965.965.965h8.336a.966.966 0 0 0 .965-.965v-.834a.966.966 0 0 0-.965-.966Z" fill="#FED402"/><path d="M36.65 37.62H34.72c.533 0 .966.433.966.966v.834a.966.966 0 0 1-.966.965h1.932a.966.966 0 0 0 .965-.965v-.834a.966.966 0 0 0-.965-.966Z" fill="#FAC600"/></svg>
