<svg width="64" height="64" fill="none" xmlns="http://www.w3.org/2000/svg"><path d="M43.418 54H29.413V17.58h15.318v30.432l-1.313 2V54Z" fill="#EB8D00"/><path d="M31.835 12.004h-2.422l-2 15.995 2 25.527 2.422-.34V12.004Z" fill="#FDAE02"/><path d="M10.284 8v4.004H8v41.182l12.91 1.533 8.503-1.193V8h-19.13Z" fill="#FDCB02"/><path d="M15.002 17.613h2.814v4h-2.814v-4ZM22.005 17.613h2.813v4h-2.813v-4ZM15.002 25.615h2.814v4.001h-2.814v-4ZM22.005 25.615h2.813v4.001h-2.813v-4ZM15.002 33.618h2.814v4.001h-2.814v-4.001ZM22.005 33.618h2.813v4.001h-2.813v-4.001ZM15.002 41.62h2.814v4.002h-2.814V41.62ZM22.005 41.62h2.813v4.002h-2.813V41.62Z" fill="#F3FFFB"/><path d="M35.446 25.615h2.814v4.001h-2.814v-4ZM35.446 33.618h2.814v4.001h-2.814v-4.001Z" fill="#FFD27B"/><path d="M41.925 47.528h2.814v7.003h-2.814v-7.003Z" fill="#8F4D24"/><path d="M43.332 50.873a6.15 6.15 0 0 1-6.142-6.142 6.15 6.15 0 0 1 6.142-6.143 6.15 6.15 0 0 1 6.143 6.143 6.15 6.15 0 0 1-6.143 6.142Z" fill="#A8D32A"/><path d="M49.42 53.186H29.413l-1 1.83 1 .984H49.42v-2.814Z" fill="#8D9CA8"/><path d="M8 53.186h21.413V56H8v-2.814Z" fill="#AAB8C7"/></svg>
