<svg width="64" height="64" fill="none" xmlns="http://www.w3.org/2000/svg"><path d="M20.304 54.425H8.966A.966.966 0 0 1 8 53.459V10.966c0-.534.432-.966.966-.966h11.338c.533 0 .966.432.966.966v42.493a.966.966 0 0 1-.966.966Z" fill="#FD8087"/><path d="M21.27 10h-2.898c.534 0 .966.432.966.966v42.493a.966.966 0 0 1-.966.966h2.898a.966.966 0 0 0 .965-.966V10.966A.966.966 0 0 0 21.27 10Z" fill="#FE646F"/><path d="M17.01 32.365h-4.75a.966.966 0 0 1-.966-.966v-16.48c0-.534.432-.966.965-.966h4.752c.533 0 .965.432.965.965v16.48a.966.966 0 0 1-.965.967Z" fill="#EFEDEF"/><path d="M17.977 13.953h-1.932c.533 0 .966.432.966.965v16.48a.966.966 0 0 1-.966.967h1.931a.966.966 0 0 0 .966-.966v-16.48a.966.966 0 0 0-.965-.966Z" fill="#D7D0D6"/><path d="M11.294 20.62a.725.725 0 0 1-.257-1.402l7.649-2.898a.724.724 0 0 1 .513 1.355l-7.649 2.897a.724.724 0 0 1-.256.047ZM11.294 25.332a.725.725 0 0 1-.257-1.402l7.649-2.897a.724.724 0 1 1 .513 1.354l-7.649 2.898a.724.724 0 0 1-.256.047ZM11.294 30.044a.725.725 0 0 1-.257-1.402l7.649-2.897a.724.724 0 1 1 .513 1.355l-7.649 2.897a.724.724 0 0 1-.256.047Z" fill="#B5ADB6"/><path d="M37.186 54.425H25.848a.966.966 0 0 1-.966-.966V10.966c0-.534.432-.966.966-.966h11.338c.533 0 .966.432.966.966v42.493a.966.966 0 0 1-.966.966Z" fill="#8AC9FE"/><path d="M38.152 10h-2.898c.534 0 .966.432.966.966v42.493a.966.966 0 0 1-.966.966h2.898a.966.966 0 0 0 .966-.966V10.966a.966.966 0 0 0-.966-.966Z" fill="#60B7FF"/><path d="M54.068 54.425H42.73a.966.966 0 0 1-.965-.966V10.966c0-.534.432-.966.965-.966h11.338c.534 0 .966.432.966.966v42.493a.966.966 0 0 1-.966.966Z" fill="#FED402"/><path d="M55.034 10h-2.897c.533 0 .966.432.966.966v42.493a.966.966 0 0 1-.966.966h2.897a.966.966 0 0 0 .966-.966V10.966a.966.966 0 0 0-.966-.966Z" fill="#FAC600"/><path d="M50.775 32.365h-4.75a.966.966 0 0 1-.967-.966v-16.48c0-.534.433-.966.966-.966h4.751c.534 0 .966.432.966.965v16.48a.966.966 0 0 1-.966.967ZM17.366 46.145c0 1.774-.473 3.213-2.248 3.213a3.214 3.214 0 0 1 0-6.427c1.775 0 2.248 1.439 2.248 3.214ZM34.248 46.145c0 1.774-.473 3.213-2.248 3.213a3.214 3.214 0 0 1 0-6.427c1.775 0 2.248 1.439 2.248 3.214ZM33.893 32.365h-4.751a.966.966 0 0 1-.966-.966v-16.48c0-.534.432-.966.966-.966h4.751c.533 0 .966.432.966.965v16.48a.966.966 0 0 1-.966.967Z" fill="#EFEDEF"/><path d="M51.741 13.953H49.81c.533 0 .965.432.965.965v16.48a.966.966 0 0 1-.965.967h1.931a.966.966 0 0 0 .966-.966v-16.48a.966.966 0 0 0-.966-.966ZM34.859 13.953h-1.932c.533 0 .966.432.966.965v16.48a.966.966 0 0 1-.966.967h1.932a.966.966 0 0 0 .965-.966v-16.48a.966.966 0 0 0-.965-.966Z" fill="#D7D0D6"/><path d="M51.13 46.145c0 1.774-.473 3.213-2.248 3.213a3.214 3.214 0 0 1 0-6.427c1.775 0 2.248 1.439 2.248 3.214Z" fill="#EFEDEF"/><path d="M48.882 42.93c-.336 0-.66.053-.965.148a3.215 3.215 0 0 1 0 6.133 3.214 3.214 0 1 0 .966-6.28ZM32 42.93c-.337 0-.661.053-.966.148a3.215 3.215 0 0 1 0 6.133A3.214 3.214 0 1 0 32 42.93ZM15.118 42.93c-.337 0-.661.053-.966.148a3.215 3.215 0 0 1 0 6.133 3.214 3.214 0 1 0 .966-6.28Z" fill="#D7D0D6"/><path d="M28.176 20.62a.724.724 0 0 1-.257-1.402l7.648-2.898a.724.724 0 0 1 .514 1.355l-7.649 2.897a.724.724 0 0 1-.256.047ZM28.176 25.332a.724.724 0 0 1-.257-1.402l7.648-2.897a.724.724 0 1 1 .514 1.354l-7.649 2.898a.724.724 0 0 1-.256.047ZM28.176 30.044a.724.724 0 0 1-.257-1.402l7.648-2.897a.724.724 0 1 1 .514 1.355l-7.649 2.897a.724.724 0 0 1-.256.047ZM45.057 20.62a.725.725 0 0 1-.256-1.402l7.648-2.898a.725.725 0 0 1 .514 1.355l-7.65 2.897a.725.725 0 0 1-.256.047ZM45.057 25.332a.725.725 0 0 1-.256-1.402l7.648-2.897a.724.724 0 0 1 .514 1.354l-7.65 2.898a.725.725 0 0 1-.256.047ZM45.057 30.044a.725.725 0 0 1-.256-1.402l7.648-2.897a.725.725 0 0 1 .514 1.355l-7.65 2.897a.725.725 0 0 1-.256.047Z" fill="#B5ADB6"/></svg>
