<svg width="64" height="64" fill="none" xmlns="http://www.w3.org/2000/svg"><path d="M45.094 51.529H20.249a1.932 1.932 0 0 1-1.931-1.932V13.926h-3.202A2.116 2.116 0 0 0 13 16.042v37.842c0 1.169.947 2.116 2.116 2.116h27.861a2.116 2.116 0 0 0 2.117-2.116v-2.355Z" fill="#8AC9FE"/><path d="M18.318 13.926v35.671c0 1.067.865 1.932 1.932 1.932h24.844v2.355c0 .412-.119.796-.322 1.122h-26.27a2.116 2.116 0 0 1-2.115-2.117v-1.545l.965-36.296.966-1.122Z" fill="#60B7FF"/><path d="M48.48 48.142H23.636a1.932 1.932 0 0 1-1.932-1.931V11.386h-3.201a2.116 2.116 0 0 0-2.116 2.117v37.84c0 1.17.947 2.117 2.116 2.117h27.86a2.116 2.116 0 0 0 2.117-2.116v-3.202Z" fill="#FED402"/><path d="M21.704 11.386v34.825c0 1.067.865 1.931 1.932 1.931H48.48v3.202c0 .172-.021.34-.06.5H21.89a2.116 2.116 0 0 1-2.116-2.117v-1.77l.965-2.671v-33.4l.966-.5Z" fill="#FAC600"/><path d="M49.557 50.074H21.889a2.116 2.116 0 0 1-2.116-2.116V10.116c0-1.168.947-2.116 2.116-2.116h21.403l8.381 8.574v31.384a2.116 2.116 0 0 1-2.116 2.116Z" fill="#EFEDEF"/><path d="M48.969 13.676v34.282a2.116 2.116 0 0 1-2.117 2.116h2.898a2.116 2.116 0 0 0 2.116-2.116V16.574l-2.897-2.898Z" fill="#D7D0D6"/><path d="M51.866 16.574h-6.458a2.116 2.116 0 0 1-2.116-2.116V8l8.574 8.574ZM45.485 24.393H26.154a.724.724 0 0 1 0-1.449h19.331a.724.724 0 0 1 0 1.449ZM45.485 29.761H26.154a.724.724 0 0 1 0-1.448h19.331a.724.724 0 0 1 0 1.448ZM45.485 35.13H26.154a.724.724 0 0 1 0-1.449h19.331a.724.724 0 0 1 0 1.449Z" fill="#B5ADB6"/></svg>
