<svg width="64" height="64" fill="none" xmlns="http://www.w3.org/2000/svg"><path d="M47.07 60.753H15.788A3.787 3.787 0 0 1 12 56.965V7.787A3.787 3.787 0 0 1 15.787 4h31.284a3.787 3.787 0 0 1 3.787 3.787v49.178a3.787 3.787 0 0 1-3.787 3.788Z" fill="#B5ADB6"/><path d="M42.424 22.903H20.18a2.705 2.705 0 0 1-2.705-2.705v-8.193A2.705 2.705 0 0 1 20.179 9.3h22.245a2.705 2.705 0 0 1 2.705 2.705v8.193a2.705 2.705 0 0 1-2.705 2.705Z" fill="#8AC9FE"/><path d="M43.566 9.3h-2.513a2.705 2.705 0 0 1 2.706 2.705v8.193a2.705 2.705 0 0 1-2.706 2.705h2.513a2.705 2.705 0 0 0 2.705-2.705v-8.193A2.705 2.705 0 0 0 43.566 9.3Z" fill="#60B7FF"/><path d="M48.213 4h-3.426a3.787 3.787 0 0 1 3.787 3.787v49.178a3.787 3.787 0 0 1-3.787 3.788h3.426A3.787 3.787 0 0 0 52 56.965V7.788A3.787 3.787 0 0 0 48.213 4Z" fill="#9B8E99"/><path d="M42.418 20.088h-5.823a.856.856 0 1 1 0-1.712h5.823a.856.856 0 1 1 0 1.712ZM26.006 39.79h-5.827a2.705 2.705 0 0 1-2.705-2.705v-6.969a2.705 2.705 0 0 1 2.705-2.705h5.827a2.705 2.705 0 0 1 2.705 2.705v6.969a2.705 2.705 0 0 1-2.705 2.705ZM26.006 56.209h-5.827a2.705 2.705 0 0 1-2.705-2.706v-6.968a2.705 2.705 0 0 1 2.705-2.705h5.827a2.705 2.705 0 0 1 2.705 2.705v6.969a2.705 2.705 0 0 1-2.705 2.705Z" fill="#EFEDEF"/><path d="M42.424 56.209h-5.826a2.705 2.705 0 0 1-2.705-2.706v-6.968a2.705 2.705 0 0 1 2.705-2.705h5.826a2.705 2.705 0 0 1 2.705 2.705v6.969a2.705 2.705 0 0 1-2.705 2.705Z" fill="#FD8087"/><path d="M26.348 32.744H24.52v-1.828a.856.856 0 1 0-1.713 0v1.828h-1.828a.856.856 0 1 0 0 1.713h1.828v1.828a.856.856 0 1 0 1.713 0v-1.828h1.828a.856.856 0 1 0 0-1.713Z" fill="#B5ADB6"/><path d="M42.767 47.627h-5.37a.856.856 0 1 0 0 1.712h5.37a.856.856 0 1 0 0-1.712ZM42.767 50.699h-5.37a.856.856 0 1 0 0 1.713h5.37a.856.856 0 1 0 0-1.713Z" fill="#EFEDEF"/><path d="M26.167 47.515a.857.857 0 0 0-1.211 0l-1.293 1.293-1.293-1.293a.857.857 0 0 0-1.21 1.211l1.292 1.293-1.293 1.293a.856.856 0 1 0 1.211 1.211l1.293-1.293 1.293 1.293a.854.854 0 0 0 1.211 0 .856.856 0 0 0 0-1.21l-1.292-1.294 1.292-1.293a.857.857 0 0 0 0-1.21Z" fill="#B5ADB6"/><path d="M42.424 39.79h-5.826a2.705 2.705 0 0 1-2.705-2.705v-6.969a2.705 2.705 0 0 1 2.705-2.705h5.826a2.705 2.705 0 0 1 2.705 2.705v6.969a2.705 2.705 0 0 1-2.705 2.705Z" fill="#EFEDEF"/><path d="M43.566 27.411h-2.513a2.705 2.705 0 0 1 2.706 2.705v6.969a2.705 2.705 0 0 1-2.706 2.705h2.513a2.705 2.705 0 0 0 2.705-2.705v-6.969a2.705 2.705 0 0 0-2.705-2.705ZM27.147 27.411h-2.512a2.705 2.705 0 0 1 2.705 2.705v6.969a2.705 2.705 0 0 1-2.705 2.705h2.512a2.705 2.705 0 0 0 2.705-2.705v-6.969a2.705 2.705 0 0 0-2.705-2.705ZM27.147 43.83h-2.512a2.705 2.705 0 0 1 2.705 2.705v6.969a2.705 2.705 0 0 1-2.705 2.705h2.512a2.705 2.705 0 0 0 2.705-2.706v-6.968a2.705 2.705 0 0 0-2.705-2.705Z" fill="#D7D0D6"/><path d="M43.566 43.83h-2.513a2.705 2.705 0 0 1 2.706 2.705v6.969a2.705 2.705 0 0 1-2.706 2.705h2.513a2.705 2.705 0 0 0 2.705-2.706v-6.968a2.705 2.705 0 0 0-2.705-2.705Z" fill="#FE646F"/><path d="M37.397 34.457h5.37a.856.856 0 1 0 0-1.713h-5.37a.856.856 0 1 0 0 1.713Z" fill="#B5ADB6"/></svg>
