<svg width="492" height="137" xmlns="http://www.w3.org/2000/svg"><g fill="#FFFFFE" fill-rule="evenodd"><path d="M258.943 66.18V87.9h-11.116V66.77c0-6.19-3.734-8.99-7.552-8.99-3.988 0-8.91 2.12-8.91 9.33V87.9H220.25V48.27h11.115v6.45c1.867-5.17 8.062-7.47 11.88-7.47 10.352 0 15.783 7.05 15.698 18.93M269.634 87.9h11.116V48.27h-11.116V87.9Zm-1.527-53.29c0-3.73 3.224-6.62 7.043-6.62 3.903 0 7.042 2.89 7.042 6.62s-3.139 6.7-7.042 6.7c-3.819 0-7.043-2.97-7.043-6.7ZM363.312 64.48c-.339-4.67-4.158-7.64-9.164-7.64-4.582 0-8.485 2.29-9.673 7.64h18.837Zm10.946 7.21h-29.783c1.188 4.67 4.921 7.38 10.182 7.38 4.073 0 7.976-1.86 10.437-4.66l6.449 6.53c-3.734 5.01-10.607 7.98-17.565 7.98-12.218 0-21.128-8.57-21.128-20.79 0-12.81 9.758-20.88 21.043-20.88 11.371 0 20.62 8.07 20.62 20.2 0 1.1-.085 2.46-.255 4.24ZM412.019 48.53l-2.545 10.6c-2.377-1.27-4.328-1.44-5.686-1.44-5.685 0-9.588 5.35-9.588 16.63V87.9h-11.116V48.27h11.031v8.49c2.206-6.62 6.703-9.51 11.625-9.51 2.121 0 4.497.34 6.279 1.28M441.293 48.27v8.66h-8.4V87.9h-11.116V56.93h-7.213v-8.66h7.213V33.85h11.116v14.42h8.4M476.424 68.13c0-6.2-4.497-10.52-10.013-10.52s-10.013 4.32-10.013 10.52c0 6.11 4.497 10.44 10.013 10.44s10.013-4.33 10.013-10.44Zm-31.311 0c0-12.56 10.012-20.88 21.298-20.88 11.285 0 21.298 8.32 21.298 20.88 0 12.47-10.013 20.79-21.298 20.79-11.286 0-21.298-8.32-21.298-20.79ZM309.09 62.94c0-7.09 6.153-12.83 13.744-12.83V37.12c-16.198 0-29.328 12.25-29.328 27.36s13.13 27.36 29.328 27.36V75.76c-7.591 0-13.744-5.74-13.744-12.82M179.098 70.81c-8.309 0-15.045-6.73-15.045-15.04h-15.249c0 17.73 14.374 32.1 32.105 32.1 17.732 0 32.106-14.37 32.106-32.1h-18.871c0 8.31-6.736 15.04-15.046 15.04M102.773 136.09v-20.71c-10.895 6.99-23.729 11.08-37.49 11.22 11.004 6.02 23.81 9.49 37.49 9.49M66.456 82.83c4.329.02 8.458-.87 12.216-2.51-4.978-5.28-8.003-12.19-8.003-19.78 0-16.54 14.374-29.95 32.104-29.95V.24c-33.438 0-61.264 22.35-67.284 51.91.947 17.03 14.406 30.58 30.967 30.68"/><path d="M93.396 61.84C89.868 75.93 77.56 86.28 62.982 86.19c-17.186-.1-31.037-14.69-31.024-32.61H.32c0 37.83 29.841 68.5 66.652 68.5s66.652-30.67 66.652-68.5H94.447c0 2.86-.368 5.63-1.051 8.26Z"/><g fill-rule="nonzero"><path d="M329.15 104.353c-1.073.988-2.106 1.482-3.1 1.482-.818 0-1.497-.256-2.036-.768-.54-.512-.809-1.159-.809-1.94 0-1.08.453-1.908 1.359-2.486.906-.58 2.204-.868 3.895-.868h.427v-1.191c0-1.145-.588-1.718-1.764-1.718-.945 0-1.966.291-3.062.873v-1.482c1.205-.49 2.335-.736 3.39-.736 1.102 0 1.916.248 2.44.745s.786 1.27.786 2.318v4.472c0 1.024.315 1.536.945 1.536.08 0 .194-.012.346-.037l.127.991a3.08 3.08 0 0 1-1.345.29c-.836 0-1.37-.493-1.6-1.48Zm-.264-.972v-2.554l-.6-.018c-.982 0-1.776.186-2.381.559-.606.372-.91.862-.91 1.468 0 .43.152.793.455 1.09.303.297.673.446 1.109.446.745 0 1.52-.33 2.327-.991ZM336.957 105.835c-.818 0-1.812-.191-2.982-.573v-1.645c1.17.582 2.188.873 3.054.873.515 0 .943-.14 1.282-.418.34-.28.509-.627.509-1.046 0-.612-.476-1.118-1.427-1.517l-1.045-.446c-1.545-.642-2.318-1.566-2.318-2.772 0-.86.304-1.537.913-2.031.61-.494 1.444-.741 2.504-.741.552 0 1.233.076 2.045.227l.373.073v1.49c-1-.296-1.793-.445-2.381-.445-1.151 0-1.727.418-1.727 1.254 0 .54.436.994 1.309 1.364l.863.363c.976.412 1.666.847 2.072 1.305.406.457.61 1.028.61 1.713 0 .866-.343 1.578-1.028 2.136-.684.557-1.56.836-2.626.836ZM346.445 105.835c-.818 0-1.811-.191-2.98-.573v-1.645c1.169.582 2.187.873 3.053.873.515 0 .942-.14 1.282-.418.339-.28.509-.627.509-1.046 0-.612-.476-1.118-1.427-1.517l-1.046-.446c-1.545-.642-2.317-1.566-2.317-2.772 0-.86.304-1.537.913-2.031.61-.494 1.444-.741 2.504-.741.552 0 1.233.076 2.045.227l.373.073v1.49c-1-.296-1.794-.445-2.381-.445-1.152 0-1.727.418-1.727 1.254 0 .54.436.994 1.308 1.364l.864.363c.975.412 1.666.847 2.072 1.305.406.457.61 1.028.61 1.713 0 .866-.343 1.578-1.028 2.136-.685.557-1.56.836-2.627.836ZM360.551 105.29c-1.2.363-2.226.545-3.08.545-1.455 0-2.641-.483-3.56-1.45-.917-.966-1.376-2.219-1.376-3.758 0-1.497.404-2.724 1.213-3.681.81-.957 1.844-1.436 3.104-1.436 1.194 0 2.116.424 2.768 1.272.651.849.977 2.054.977 3.618l-.01.554h-6.225c.26 2.345 1.409 3.518 3.444 3.518.746 0 1.66-.2 2.745-.6v1.418Zm-6.107-5.681h4.353c0-1.836-.685-2.754-2.054-2.754-1.375 0-2.142.918-2.3 2.754ZM366.305 105.835c-.818 0-1.812-.191-2.982-.573v-1.645c1.17.582 2.188.873 3.054.873.515 0 .942-.14 1.282-.418.34-.28.509-.627.509-1.046 0-.612-.476-1.118-1.427-1.517l-1.045-.446c-1.546-.642-2.318-1.566-2.318-2.772 0-.86.304-1.537.913-2.031.61-.494 1.444-.741 2.504-.741.552 0 1.233.076 2.045.227l.373.073v1.49c-1-.296-1.794-.445-2.381-.445-1.152 0-1.727.418-1.727 1.254 0 .54.436.994 1.309 1.364l.863.363c.976.412 1.666.847 2.072 1.305.406.457.61 1.028.61 1.713 0 .866-.343 1.578-1.028 2.136-.684.557-1.56.836-2.626.836ZM375.793 105.835c-.818 0-1.811-.191-2.98-.573v-1.645c1.169.582 2.187.873 3.053.873.515 0 .942-.14 1.282-.418.339-.28.509-.627.509-1.046 0-.612-.476-1.118-1.427-1.517l-1.046-.446c-1.545-.642-2.317-1.566-2.317-2.772 0-.86.304-1.537.913-2.031.61-.494 1.444-.741 2.504-.741.552 0 1.233.076 2.045.227l.373.073v1.49c-1-.296-1.794-.445-2.382-.445-1.15 0-1.726.418-1.726 1.254 0 .54.436.994 1.308 1.364l.864.363c.975.412 1.666.847 2.072 1.305.406.457.61 1.028.61 1.713 0 .866-.343 1.578-1.028 2.136-.685.557-1.56.836-2.627.836ZM386.527 105.835c-1.412 0-2.539-.468-3.38-1.404-.843-.937-1.264-2.19-1.264-3.759 0-1.587.423-2.843 1.268-3.767.845-.924 1.992-1.386 3.44-1.386s2.595.462 3.44 1.386c.845.924 1.268 2.174 1.268 3.75 0 1.611-.424 2.877-1.272 3.798-.849.921-2.015 1.382-3.5 1.382Zm.028-1.345c1.896 0 2.844-1.279 2.844-3.836 0-2.526-.936-3.79-2.808-3.79-1.866 0-2.8 1.27-2.8 3.808 0 2.545.922 3.818 2.764 3.818ZM394.098 105.608v-9.87h1.79v1.853c.71-1.381 1.74-2.072 3.091-2.072.182 0 .373.015.573.045v1.673a2.632 2.632 0 0 0-.818-.155c-1.133 0-2.082.673-2.845 2.018v6.508h-1.79ZM401.715 105.608v-9.87h1.79v9.87h-1.79Zm0-11.661v-1.79h1.79v1.79h-1.79ZM412.185 104.353c-1.072.988-2.105 1.482-3.1 1.482-.817 0-1.496-.256-2.035-.768-.54-.512-.809-1.159-.809-1.94 0-1.08.453-1.908 1.359-2.486.906-.58 2.204-.868 3.894-.868h.428v-1.191c0-1.145-.588-1.718-1.764-1.718-.945 0-1.966.291-3.063.873v-1.482c1.206-.49 2.336-.736 3.39-.736 1.103 0 1.917.248 2.44.745.525.497.787 1.27.787 2.318v4.472c0 1.024.315 1.536.945 1.536.08 0 .194-.012.346-.037l.127.991a3.08 3.08 0 0 1-1.345.29c-.836 0-1.37-.493-1.6-1.48Zm-.263-.972v-2.554l-.6-.018c-.982 0-1.776.186-2.382.559-.605.372-.908.862-.908 1.468 0 .43.151.793.454 1.09.303.297.673.446 1.109.446.745 0 1.52-.33 2.327-.991ZM427.118 105.835c-1.333 0-2.439-.494-3.317-1.482-.879-.987-1.318-2.232-1.318-3.735 0-1.606.435-2.857 1.304-3.754.87-.897 2.083-1.345 3.64-1.345.77 0 1.63.106 2.581.318v1.5c-1.011-.297-1.836-.446-2.472-.446-.915 0-1.65.344-2.204 1.032-.554.688-.831 1.604-.831 2.75 0 1.108.284 2.005.854 2.69.57.684 1.315 1.027 2.236 1.027.818 0 1.66-.21 2.526-.627v1.545c-1.157.351-2.157.527-2.999.527ZM436.42 105.835c-1.412 0-2.54-.468-3.382-1.404-.842-.937-1.263-2.19-1.263-3.759 0-1.587.423-2.843 1.268-3.767.845-.924 1.992-1.386 3.44-1.386s2.595.462 3.44 1.386c.846.924 1.268 2.174 1.268 3.75 0 1.611-.424 2.877-1.272 3.798-.849.921-2.015 1.382-3.5 1.382Zm.027-1.345c1.896 0 2.845-1.279 2.845-3.836 0-2.526-.937-3.79-2.809-3.79-1.866 0-2.8 1.27-2.8 3.808 0 2.545.922 3.818 2.764 3.818ZM443.99 105.608v-9.87h1.791v1.853c.945-1.381 2.103-2.072 3.472-2.072.854 0 1.536.271 2.045.813.509.543.763 1.271.763 2.186v7.09h-1.79V99.1c0-.733-.108-1.256-.323-1.568-.215-.312-.57-.468-1.068-.468-1.096 0-2.13.718-3.099 2.154v6.39h-1.79ZM458.375 105.835c-.909 0-1.618-.26-2.127-.782-.509-.52-.763-1.245-.763-2.172v-5.799h-1.236v-1.345h1.236v-1.79l1.79-.173v1.963h2.582v1.345h-2.582v5.472c0 1.29.558 1.936 1.673 1.936.236 0 .524-.04.863-.118v1.236c-.551.151-1.03.227-1.436.227ZM467.26 104.353c-1.073.988-2.106 1.482-3.1 1.482-.818 0-1.497-.256-2.036-.768-.54-.512-.809-1.159-.809-1.94 0-1.08.453-1.908 1.359-2.486.906-.58 2.204-.868 3.895-.868h.427v-1.191c0-1.145-.588-1.718-1.764-1.718-.945 0-1.966.291-3.063.873v-1.482c1.206-.49 2.336-.736 3.39-.736 1.103 0 1.917.248 2.441.745.524.497.786 1.27.786 2.318v4.472c0 1.024.315 1.536.945 1.536.08 0 .194-.012.346-.037l.127.991a3.08 3.08 0 0 1-1.345.29c-.836 0-1.37-.493-1.6-1.48Zm-.264-.972v-2.554l-.6-.018c-.982 0-1.776.186-2.381.559-.606.372-.91.862-.91 1.468 0 .43.152.793.455 1.09.303.297.673.446 1.109.446.745 0 1.52-.33 2.327-.991ZM472.449 105.717v-14.46h1.79v6.334c.734-1.381 1.833-2.072 3.3-2.072 1.187 0 2.122.433 2.804 1.3.681.866 1.022 2.05 1.022 3.553 0 1.636-.386 2.956-1.159 3.959-.772 1.002-1.789 1.504-3.049 1.504-1.17 0-2.142-.449-2.917-1.345l-.219 1.227h-1.572Zm1.79-2.463c.922.824 1.8 1.236 2.636 1.236 1.721 0 2.582-1.312 2.582-3.936 0-2.314-.764-3.472-2.29-3.472-1 0-1.976.543-2.927 1.627v4.545ZM484.165 105.608v-9.87h1.79v9.87h-1.79Zm0-11.661v-1.79h1.79v1.79h-1.79ZM489.545 105.607v-14.35h1.791v14.35z"/></g></g></svg>